<svg width="1600" height="240" viewBox="0 0 1600 240" fill="none" xmlns="http://www.w3.org/2000/svg"><defs><pattern id="grid" width="28" height="28" patternUnits="userSpaceOnUse"><path d="M28 0H0V28" fill="none" stroke="#E6DFD1" stroke-width="1"/></pattern></defs><rect width="1600" height="240" rx="24" fill="#F6F1E7"/><rect width="1600" height="240" rx="24" fill="url(#grid)"/><rect x="1.5" y="1.5" width="1597" height="237" rx="22.5" stroke="#E0D7C7" stroke-width="3"/><text x="44" y="50" fill="#7A8794" font-family="monospace" font-size="14">TRANSFER / USER FLOW</text><text x="44" y="104" fill="#111820" font-family="Arial,Helvetica,sans-serif" font-size="44" font-weight="700">Prepare → Broadcast → Receive → Verified</text><text x="44" y="143" fill="#4F5D6C" font-family="Arial,Helvetica,sans-serif" font-size="21">The product UI follows the same four-state optical transfer model.</text><rect x="44" y="182" width="226" height="4" rx="2" fill="#D7FF64"/><g transform="translate(1000 62)"><rect x="8" y="9" width="122" height="48" rx="13" fill="#111820" opacity=".16"/><rect width="122" height="48" rx="13" fill="#FFFDF8" stroke="#111820" stroke-width="2"/><text x="24" y="30" fill="#111820" font-family="monospace" font-size="13">01 PREPARE</text></g><path d="M1130 86H1170" stroke="#111820" stroke-width="2" stroke-dasharray="6 5"/><g transform="translate(1178 62)"><rect x="8" y="9" width="132" height="48" rx="13" fill="#111820" opacity=".16"/><rect width="132" height="48" rx="13" fill="#111820"/><text x="19" y="30" fill="#F6F1E7" font-family="monospace" font-size="13">02 BROADCAST</text></g><path d="M1318 86H1358" stroke="#111820" stroke-width="2" stroke-dasharray="6 5"/><g transform="translate(1366 62)"><rect x="8" y="9" width="116" height="48" rx="13" fill="#111820" opacity=".16"/><rect width="116" height="48" rx="13" fill="#FFFDF8" stroke="#111820" stroke-width="2"/><text x="19" y="30" fill="#111820" font-family="monospace" font-size="13">03 RECEIVE</text></g><g transform="translate(1178 132)"><rect x="8" y="9" width="132" height="48" rx="13" fill="#111820" opacity=".16"/><rect width="132" height="48" rx="13" fill="#D7FF64" stroke="#111820" stroke-width="2"/><text x="20" y="30" fill="#111820" font-family="monospace" font-size="13">04 VERIFIED</text></g><path d="M1424 116V156H1320" stroke="#111820" stroke-width="2" stroke-dasharray="6 5"/><path d="M1334 147L1318 156L1334 165" stroke="#D7FF64" stroke-width="3" stroke-linecap="round" stroke-linejoin="round"/></svg>